<svg xmlns="http://www.w3.org/2000/svg" version="1.1" xmlns:xlink="http://www.w3.org/1999/xlink" xmlns:svgjs="http://svgjs.dev/svgjs" width="2000" height="1247" viewBox="0 0 2000 1247"><g transform="matrix(1,0,0,1,-1.2121212121212466,0.504858299595071)"><svg viewBox="0 0 396 247" data-background-color="#ffffff" preserveAspectRatio="xMidYMid meet" height="1247" width="2000" xmlns="http://www.w3.org/2000/svg" xmlns:xlink="http://www.w3.org/1999/xlink"><g id="tight-bounds" transform="matrix(1,0,0,1,0.2400000000000091,-0.09999999999999432)"><svg viewBox="0 0 395.52 247.2" height="247.2" width="395.52"><g><svg></svg></g><g><svg viewBox="0 0 395.52 247.2" height="247.2" width="395.52"><g transform="matrix(1,0,0,1,136.76128114285711,47.215199999999996)"><svg viewBox="0 0 121.99743771428572 152.7696" height="152.7696" width="121.99743771428572"><g><svg viewBox="0 0 121.99743771428572 152.7696" height="152.7696" width="121.99743771428572"><g><svg viewBox="0 0 121.99743771428572 152.7696" height="152.7696" width="121.99743771428572"><g><svg viewBox="0 0 121.99743771428572 152.7696" height="152.7696" width="121.99743771428572"><g id="textblocktransform"><svg viewBox="0 0 121.99743771428572 152.7696" height="152.7696" width="121.99743771428572" id="textblock"><g><svg viewBox="0 0 121.99743771428572 152.7696" height="152.7696" width="121.99743771428572"><g transform="matrix(1,0,0,1,0,0)"><svg width="121.99743771428572" viewBox="1.6 -35 27.95 35" height="152.7696" data-palette-color="#ed3b43"><path d="M17.6 0L14 0 14-14.8 1.6-35 5.4-35 16.55-16.7 16.85-16.7 25.75-35 29.55-35 17.6-15.5 17.6 0Z" opacity="1" transform="matrix(1,0,0,1,0,0)" fill="#ed3b43" class="wordmark-text-0" data-fill-palette-color="primary" id="text-0"></path></svg></g></svg></g></svg></g></svg></g></svg></g></svg></g></svg></g><path d="M76.457 41.215L76.457 0 323.657 0 323.657 247.2 76.457 247.2 76.457 205.985 90.234 205.985 90.234 233.423 309.88 233.423 309.88 13.777 90.234 13.777 90.234 41.215Z" fill="#ed3b43" stroke="transparent" data-fill-palette-color="tertiary"></path></svg></g><defs></defs></svg><rect width="395.52" height="247.2" fill="none" stroke="none" visibility="hidden"></rect></g></svg></g></svg>